<?xml version="1.0" encoding="iso-8859-1"?>
<!-- Generator: Adobe Illustrator 19.0.0, SVG Export Plug-In . SVG Version: 6.00 Build 0)  -->
<svg version="1.1" id="Layer_1" xmlns="http://www.w3.org/2000/svg" xmlns:xlink="http://www.w3.org/1999/xlink" x="0px" y="0px"
	 viewBox="0 0 512 512" style="enable-background:new 0 0 512 512;" xml:space="preserve">
<circle style="fill:#FEE187;" cx="256" cy="256" r="256"/>
<path style="fill:#FFC61B;" d="M511.738,267.307L392.016,147.585l-207.127,41.182l-48.987,122.394l-48.404,55.343l144.355,144.355
	C239.804,511.602,247.855,512,256,512C393.595,512,505.818,403.444,511.738,267.307z"/>
<path style="fill:#FFEDB5;" d="M210.373,355.275H130.96c-17.598,0-30.024-17.241-24.459-33.935l26.427-79.281h75.478l26.427,79.281
	C240.397,338.034,227.971,355.275,210.373,355.275z"/>
<path style="fill:#FEE187;" d="M234.832,321.339l-26.427-79.281h-39.174v113.216h41.143
	C227.971,355.275,240.397,338.034,234.832,321.339z"/>
<polygon style="fill:#FFEDB5;" points="132.929,234.451 208.405,234.449 220.81,197.237 120.523,197.237 "/>
<polygon style="fill:#FEE187;" points="220.81,197.237 169.231,197.237 169.231,234.451 208.406,234.449 "/>
<path style="fill:#8E410D;" d="M220.81,279.273H120.523l-14.022,42.067c-5.565,16.694,6.861,33.935,24.459,33.935h79.413
	c17.598,0,30.024-17.241,24.459-33.935L220.81,279.273z"/>
<path style="fill:#77370C;" d="M234.832,321.339l-14.022-42.067h-51.579v76.002h41.143
	C227.971,355.275,240.397,338.034,234.832,321.339z"/>
<path style="fill:#334A59;" d="M132.13,253.199h77.072c3.948,0,7.147-3.2,7.147-7.147v-11.348c0-3.948-3.2-7.147-7.147-7.147H132.13
	c-3.948,0-7.147,3.2-7.147,7.147v11.348C124.983,249.999,128.183,253.199,132.13,253.199z"/>
<path style="fill:#1A2A35;" d="M209.203,227.556h-39.972v25.643h39.972c3.948,0,7.147-3.2,7.147-7.147v-11.348
	C216.35,230.755,213.151,227.556,209.203,227.556z"/>
<path style="fill:#334A59;" d="M129.005,217.212h140.21c8.411,0,15.227-6.818,15.227-15.229V175.55
	c0-8.411-6.818-15.229-15.227-15.229h-140.21c-8.409,0.002-15.227,6.82-15.227,15.231v26.433
	C113.778,210.394,120.596,217.212,129.005,217.212z"/>
<path style="fill:#1A2A35;" d="M269.215,160.323h-99.987v56.889h99.987c8.411,0,15.227-6.818,15.227-15.227v-26.433
	C284.444,167.141,277.626,160.323,269.215,160.323z"/>
<path style="fill:#223849;" d="M94.527,369.778h180.722c5.079,0,9.194-4.117,9.194-9.194v-10.056c0-5.079-4.117-9.194-9.194-9.194
	H94.527c-5.079,0-9.194,4.117-9.194,9.194v10.056C85.333,365.661,89.45,369.778,94.527,369.778z"/>
<path style="fill:#1A2A35;" d="M275.249,341.333h-106.02v28.444h106.02c5.079,0,9.194-4.117,9.194-9.194v-10.056
	C284.444,345.45,280.328,341.333,275.249,341.333z"/>
<path style="fill:#223849;" d="M275.68,369.778h102.86c10.869,0,19.682-8.811,19.682-19.682V161.902
	c0-10.869-8.811-19.68-19.682-19.68H275.68c-10.869,0-19.682,8.811-19.682,19.68v188.194
	C256,360.967,264.811,369.778,275.68,369.778z"/>
<path style="fill:#1A2A35;" d="M378.54,142.222h-51.574v227.556h51.574c10.869,0,19.682-8.811,19.682-19.682V161.904
	C398.222,151.033,389.411,142.222,378.54,142.222z"/>
<path style="fill:#485D68;" d="M355.556,341.333L355.556,341.333c-7.854,0-14.222-6.368-14.222-14.222V184.889
	c0-7.854,6.368-14.222,14.222-14.222l0,0c7.854,0,14.222,6.368,14.222,14.222v142.222
	C369.778,334.965,363.41,341.333,355.556,341.333z"/>
<circle style="fill:#E03A00;" cx="282.427" cy="311.165" r="6.896"/>
<circle style="fill:#18A000;" cx="282.427" cy="281.859" r="6.896"/>
<g>
</g>
<g>
</g>
<g>
</g>
<g>
</g>
<g>
</g>
<g>
</g>
<g>
</g>
<g>
</g>
<g>
</g>
<g>
</g>
<g>
</g>
<g>
</g>
<g>
</g>
<g>
</g>
<g>
</g>
</svg>
