<?xml version="1.0" encoding="UTF-8" standalone="no"?>
<!-- Created with Inkscape (http://www.inkscape.org/) -->

<svg
   xmlns:dc="http://purl.org/dc/elements/1.1/"
   xmlns:cc="http://creativecommons.org/ns#"
   xmlns:rdf="http://www.w3.org/1999/02/22-rdf-syntax-ns#"
   xmlns:svg="http://www.w3.org/2000/svg"
   xmlns="http://www.w3.org/2000/svg"
   xmlns:sodipodi="http://sodipodi.sourceforge.net/DTD/sodipodi-0.dtd"
   xmlns:inkscape="http://www.inkscape.org/namespaces/inkscape"
   id="svg2"
   version="1.1"
   inkscape:version="0.48.4 r9939"
   width="1305.375"
   height="1313.15"
   xml:space="preserve"
   sodipodi:docname="software_logo_final.eps"><metadata
     id="metadata8"><rdf:RDF><cc:Work
         rdf:about=""><dc:format>image/svg+xml</dc:format><dc:type
           rdf:resource="http://purl.org/dc/dcmitype/StillImage" /><dc:title></dc:title></cc:Work></rdf:RDF></metadata><defs
     id="defs6" /><sodipodi:namedview
     pagecolor="#ffffff"
     bordercolor="#666666"
     borderopacity="1"
     objecttolerance="10"
     gridtolerance="10"
     guidetolerance="10"
     inkscape:pageopacity="0"
     inkscape:pageshadow="2"
     inkscape:window-width="1920"
     inkscape:window-height="1145"
     id="namedview4"
     showgrid="false"
     inkscape:zoom="0.17972052"
     inkscape:cx="652.6875"
     inkscape:cy="656.57501"
     inkscape:window-x="0"
     inkscape:window-y="27"
     inkscape:window-maximized="1"
     inkscape:current-layer="g10" /><g
     id="g10"
     inkscape:groupmode="layer"
     inkscape:label="ink_ext_XXXXXX"
     transform="matrix(1.25,0,0,-1.25,0,1313.15)"><g
       id="g12"
       transform="scale(0.1,0.1)"><path
         d="m 10443,1588.33 -10443,0 0,8916.87 6081.03,0 1007.28,-1701.25 3354.69,0 0,-7215.62"
         style="fill:#ffffff;fill-opacity:1;fill-rule:nonzero;stroke:none"
         id="path14" /><path
         d="m 3657.35,1887.78 3126.45,0 0,6621.47 -3126.45,0 0,-6621.47 z"
         style="fill:#231f20;fill-opacity:1;fill-rule:nonzero;stroke:none"
         id="path16" /><path
         d="m 7021.88,1887.78 3126.42,0 0,6621.47 -3126.42,0 0,-6621.47 z"
         style="fill:#231f20;fill-opacity:1;fill-rule:nonzero;stroke:none"
         id="path18" /><path
         d="m 294.703,1887.78 3126.42,0 0,6621.47 -3126.42,0 0,-6621.47 z"
         style="fill:#231f20;fill-opacity:1;fill-rule:nonzero;stroke:none"
         id="path20" /><path
         d="m 2436.63,4942.65 c 0,0 2685.68,-3471.61 6314.88,-10.42"
         style="fill:none;stroke:#ffffff;stroke-opacity:1;stroke-width:260;stroke-linecap:butt;stroke-linejoin:miter;stroke-miterlimit:10;stroke-dasharray:none"
         id="path22" /><path
         d="m 529.32,312.398 40.645,0 0,-177.5 c 0,-30.796 -3.496,-55.398 -10.473,-73.4957 C 552.504,43.1992 539.902,28.5 521.676,17.1016 503.453,5.69922 479.531,0 449.926,0 c -28.774,0 -52.305,5 -70.602,14.8984 -18.293,9.9024 -31.351,24.3008 -39.172,43.0039 -7.824,18.7969 -11.73,44.4957 -11.73,76.9957 l 0,177.5 40.641,0 0,-177.296 c 0,-26.602 2.476,-46.3012 7.437,-58.9028 4.953,-12.6992 13.477,-22.3984 25.555,-29.2969 12.082,-6.8007 26.851,-10.2031 44.308,-10.2031 29.887,0 51.188,6.6992 63.895,20.3008 12.711,13.5 19.062,39.6016 19.062,78.102 l 0,177.296"
         style="fill:#7b7979;fill-opacity:1;fill-rule:nonzero;stroke:none"
         id="path24" /><path
         d="m 637.211,5.19922 0,307.19878 41.691,0 161.309,-241.1988 0,241.1988 38.965,0 0,-307.19878 -41.692,0 -161.308,241.40278 0,-241.40278 -38.965,0"
         style="fill:#7b7979;fill-opacity:1;fill-rule:nonzero;stroke:none"
         id="path26" /><path
         d="m 954.387,5.19922 40.6367,0 0,307.199 -40.6367,0 0,-307.199 z"
         style="fill:#7b7979;fill-opacity:1;fill-rule:nonzero;stroke:none"
         id="path28" /><path
         d="m 1154.45,5.19922 -119,307.19878 44,0 79.81,-223.0972 c 6.43,-17.8985 11.8,-34.6992 16.14,-50.3008 4.74,16.6992 10.26,33.5 16.54,50.3008 l 82.96,223.0972 41.48,0 -120.25,-307.19878 -41.68,0"
         style="fill:#7b7979;fill-opacity:1;fill-rule:nonzero;stroke:none"
         id="path30" /><path
         d="m 1353.67,5.19922 0,307.19878 222.07,0 0,-36.296 -181.42,0 0,-94 169.89,0 0,-36.102 -169.89,0 0,-104.5 188.54,0 0,-36.30078 -229.19,0"
         style="fill:#7b7979;fill-opacity:1;fill-rule:nonzero;stroke:none"
         id="path32" /><path
         d="m 1680.27,176.801 87.36,0 c 18.58,0 33.1,1.898 43.58,5.801 10.47,3.8 18.43,10 23.88,18.398 5.44,8.5 8.17,17.602 8.17,27.602 0,14.5 -5.28,26.398 -15.82,35.8 -10.55,9.297 -27.2,14 -49.96,14 l -97.21,0 0,-101.601 z m -40.64,-171.60178 0,307.19878 136.17,0 c 27.37,0 48.18,-2.796 62.43,-8.296 14.25,-5.5 25.63,-15.301 34.15,-29.204 8.51,-14 12.78,-29.398 12.78,-46.296 0,-21.801 -7.06,-40.204 -21.16,-55.102 -14.11,-15 -35.9,-24.5 -65.36,-28.5 10.75,-5.199 18.92,-10.301 24.5,-15.301 11.87,-10.898 23.12,-24.5 33.74,-40.8982 l 53.41,-83.60158 -51.11,0 -40.64,63.90238 c -11.87,18.5 -21.65,32.5974 -29.33,42.3984 -7.68,9.699 -14.56,16.602 -20.64,20.5 -6.07,3.898 -12.25,6.602 -18.54,8.199 -4.61,0.903 -12.15,1.403 -22.62,1.403 l -47.14,0 0,-136.40278 -40.64,0"
         style="fill:#7b7979;fill-opacity:1;fill-rule:nonzero;stroke:none"
         id="path34" /><path
         d="m 1935.01,103.902 38.34,3.399 c 1.82,-15.3987 6.04,-28.0002 12.68,-37.801 6.63,-9.8984 16.93,-17.8008 30.9,-23.8984 13.96,-6.1016 29.67,-9.1016 47.13,-9.1016 15.51,0 29.19,2.3008 41.06,6.8984 11.87,4.6016 20.71,10.9024 26.5,18.9024 5.8,8.1015 8.7,16.8008 8.7,26.3008 0,9.6992 -2.8,18.0974 -8.38,25.3004 -5.59,7.2 -14.81,13.2 -27.65,18.098 -8.25,3.199 -26.47,8.199 -54.68,15 -28.21,6.699 -47.97,13.102 -59.29,19.102 -14.66,7.699 -25.59,17.296 -32.79,28.597 -7.19,11.403 -10.78,24.203 -10.78,38.301 0,15.5 4.4,30 13.2,43.402 8.8,13.496 21.64,23.7 38.54,30.7 16.9,7 35.68,10.5 56.35,10.5 22.77,0 42.85,-3.7 60.23,-11 17.39,-7.301 30.76,-18.102 40.12,-32.403 9.36,-14.199 14.39,-30.297 15.08,-48.398 l -38.96,-2.899 c -2.1,19.399 -9.19,34.098 -21.27,44 -12.08,9.899 -29.92,14.899 -53.52,14.899 -24.58,0 -42.49,-4.5 -53.73,-13.5 -11.25,-9 -16.87,-19.903 -16.87,-32.602 0,-11 3.98,-20.097 11.94,-27.199 7.82,-7.199 28.25,-14.5 61.28,-21.898 33.03,-7.5 55.69,-14 67.98,-19.602 17.88,-8.301 31.07,-18.699 39.59,-31.301 8.52,-12.699 12.78,-27.199 12.78,-43.699 0,-16.3984 -4.68,-31.8008 -14.04,-46.1992 -9.35,-14.5 -22.79,-25.6992 -40.32,-33.6992 C 2107.6,4 2087.87,0 2065.95,0 c -27.8,0 -51.09,4.10156 -69.87,12.1992 -18.79,8.1016 -33.52,20.1992 -44.2,36.5 C 1941.2,65 1935.57,83.3984 1935.01,103.902"
         style="fill:#7b7979;fill-opacity:1;fill-rule:nonzero;stroke:none"
         id="path36" /><path
         d="m 2241.92,5.19922 40.6367,0 0,307.199 -40.6367,0 0,-307.199 z"
         style="fill:#7b7979;fill-opacity:1;fill-rule:nonzero;stroke:none"
         id="path38" /><path
         d="m 2432.35,5.19922 0,270.90278 -101.19,0 0,36.296 243.43,0 0,-36.296 -101.6,0 0,-270.90278 -40.64,0"
         style="fill:#7b7979;fill-opacity:1;fill-rule:nonzero;stroke:none"
         id="path40" /><path
         d="m 2740.72,331.199 0,43 39.38,0 0,-43 -39.38,0 z m -69.55,-199.797 104.11,0 -32.05,85 c -9.78,25.899 -17.04,47.098 -21.78,63.7 -3.92,-19.7 -9.43,-39.204 -16.56,-58.7 l -33.72,-90 z m -8.59,199.797 0,43 39.38,0 0,-43 -39.38,0 z M 2582.55,5.19922 2700.49,312.398 l 43.79,0 125.69,-307.19878 -46.29,0 -35.83,93.10158 -128.42,0 -33.73,-93.10158 -43.15,0"
         style="fill:#7b7979;fill-opacity:1;fill-rule:nonzero;stroke:none"
         id="path42" /><path
         d="m 2980.59,5.19922 0,270.90278 -101.19,0 0,36.296 243.43,0 0,-36.296 -101.6,0 0,-270.90278 -40.64,0"
         style="fill:#7b7979;fill-opacity:1;fill-rule:nonzero;stroke:none"
         id="path44" /><path
         d="m 3274.3,5.19922 0,307.19878 40.64,0 0,-152.296 152.51,152.296 55.09,0 -128.83,-124.496 134.49,-182.70278 -53.63,0 -109.36,155.49978 -50.27,-49 0,-106.49978 -40.64,0"
         style="fill:#7b7979;fill-opacity:1;fill-rule:nonzero;stroke:none"
         id="path46" /><path
         d="m 3617.03,131.402 104.11,0 -32.05,85 c -9.78,25.899 -17.04,47.098 -21.79,63.7 -3.91,-19.7 -9.42,-39.204 -16.55,-58.7 l -33.72,-90 z M 3528.41,5.19922 3646.35,312.398 l 43.79,0 125.69,-307.19878 -46.29,0 -35.83,93.10158 -128.42,0 -33.73,-93.10158 -43.15,0"
         style="fill:#7b7979;fill-opacity:1;fill-rule:nonzero;stroke:none"
         id="path48" /><path
         d="m 3834.47,103.902 38.34,3.399 c 1.81,-15.3987 6.04,-28.0002 12.67,-37.801 6.63,-9.8984 16.94,-17.8008 30.91,-23.8984 13.96,-6.1016 29.67,-9.1016 47.13,-9.1016 15.5,0 29.19,2.3008 41.06,6.8984 11.87,4.6016 20.7,10.9024 26.5,18.9024 5.8,8.1015 8.7,16.8008 8.7,26.3008 0,9.6992 -2.8,18.0974 -8.38,25.3004 -5.59,7.2 -14.81,13.2 -27.65,18.098 -8.25,3.199 -26.47,8.199 -54.68,15 -28.22,6.699 -47.98,13.102 -59.29,19.102 -14.66,7.699 -25.6,17.296 -32.79,28.597 -7.19,11.403 -10.78,24.203 -10.78,38.301 0,15.5 4.4,30 13.19,43.402 8.8,13.496 21.65,23.7 38.55,30.7 16.9,7 35.68,10.5 56.35,10.5 22.77,0 42.84,-3.7 60.23,-11 17.39,-7.301 30.76,-18.102 40.12,-32.403 9.35,-14.199 14.38,-30.297 15.08,-48.398 l -38.96,-2.899 c -2.1,19.399 -9.19,34.098 -21.27,44 -12.08,9.899 -29.92,14.899 -53.52,14.899 -24.58,0 -42.49,-4.5 -53.73,-13.5 -11.25,-9 -16.87,-19.903 -16.87,-32.602 0,-11 3.98,-20.097 11.94,-27.199 7.82,-7.199 28.25,-14.5 61.28,-21.898 33.03,-7.5 55.69,-14 67.98,-19.602 17.87,-8.301 31.07,-18.699 39.59,-31.301 8.52,-12.699 12.78,-27.199 12.78,-43.699 0,-16.3984 -4.68,-31.8008 -14.04,-46.1992 -9.35,-14.5 -22.8,-25.6992 -40.33,-33.6992 C 4007.06,4 3987.33,0 3965.41,0 c -27.8,0 -51.09,4.10156 -69.87,12.1992 -18.79,8.1016 -33.52,20.1992 -44.2,36.5 -10.69,16.3008 -16.31,34.6992 -16.87,55.2028"
         style="fill:#7b7979;fill-opacity:1;fill-rule:nonzero;stroke:none"
         id="path50" /><path
         d="m 4120.64,103.902 38.34,3.399 c 1.81,-15.3987 6.03,-28.0002 12.67,-37.801 6.63,-9.8984 16.93,-17.8008 30.9,-23.8984 13.96,-6.1016 29.68,-9.1016 47.14,-9.1016 15.5,0 29.19,2.3008 41.06,6.8984 11.87,4.6016 20.7,10.9024 26.5,18.9024 5.79,8.1015 8.69,16.8008 8.69,26.3008 0,9.6992 -2.79,18.0974 -8.38,25.3004 -5.58,7.2 -14.8,13.2 -27.65,18.098 -8.24,3.199 -26.47,8.199 -54.68,15 -28.21,6.699 -47.97,13.102 -59.28,19.102 -14.67,7.699 -25.6,17.296 -32.79,28.597 -7.19,11.403 -10.79,24.203 -10.79,38.301 0,15.5 4.4,30 13.2,43.402 8.8,13.496 21.65,23.7 38.55,30.7 16.9,7 35.68,10.5 56.35,10.5 22.76,0 42.84,-3.7 60.23,-11 17.39,-7.301 30.76,-18.102 40.12,-32.403 9.35,-14.199 14.38,-30.297 15.08,-48.398 l -38.97,-2.899 c -2.09,19.399 -9.18,34.098 -21.26,44 -12.08,9.899 -29.92,14.899 -53.53,14.899 -24.58,0 -42.49,-4.5 -53.73,-13.5 -11.24,-9 -16.86,-19.903 -16.86,-32.602 0,-11 3.98,-20.097 11.94,-27.199 7.82,-7.199 28.24,-14.5 61.28,-21.898 33.02,-7.5 55.68,-14 67.97,-19.602 17.88,-8.301 31.08,-18.699 39.6,-31.301 8.51,-12.699 12.78,-27.199 12.78,-43.699 0,-16.3984 -4.69,-31.8008 -14.04,-46.1992 -9.36,-14.5 -22.8,-25.6992 -40.33,-33.6992 C 4293.23,4 4273.5,0 4251.57,0 c -27.79,0 -51.08,4.10156 -69.86,12.1992 -18.79,8.1016 -33.52,20.1992 -44.21,36.5 -10.68,16.3008 -16.3,34.6992 -16.86,55.2028"
         style="fill:#7b7979;fill-opacity:1;fill-rule:nonzero;stroke:none"
         id="path52" /><path
         d="m 4421.47,5.19922 0,307.19878 222.07,0 0,-36.296 -181.43,0 0,-94 169.9,0 0,-36.102 -169.9,0 0,-104.5 188.54,0 0,-36.30078 -229.18,0"
         style="fill:#7b7979;fill-opacity:1;fill-rule:nonzero;stroke:none"
         id="path54" /><path
         d="m 4705.12,5.19922 0,307.19878 40.64,0 0,-270.898 151.26,0 0,-36.30078 -191.9,0"
         style="fill:#7b7979;fill-opacity:1;fill-rule:nonzero;stroke:none"
         id="path56" /><path
         d="m 5929.02,10210.5 -5634.317,0 0,-1464.2 6489.097,0 -854.78,1464.2"
         style="fill:#231f20;fill-opacity:1;fill-rule:nonzero;stroke:none"
         id="path58" /><path
         d="m 2742.44,5695.73 c 0,-496.96 -402.82,-899.74 -899.72,-899.74 -496.88,0 -899.7,402.78 -899.7,899.74 0,496.85 402.82,899.65 899.7,899.65 496.9,0 899.72,-402.8 899.72,-899.65 z"
         style="fill:none;stroke:#ffffff;stroke-opacity:1;stroke-width:260;stroke-linecap:butt;stroke-linejoin:miter;stroke-miterlimit:10;stroke-dasharray:none"
         id="path60" /><path
         d="m 7821.97,4921.99 1566.18,0 0,1566.14 -1566.18,0 0,-1566.14 z"
         style="fill:none;stroke:#ffffff;stroke-opacity:1;stroke-width:260;stroke-linecap:butt;stroke-linejoin:miter;stroke-miterlimit:10;stroke-dasharray:none"
         id="path62" /><path
         d="m 327.742,782.781 65.75,5.75 c 3.11,-26.359 10.356,-47.968 21.738,-64.851 11.372,-16.891 29.04,-30.539 52.993,-40.957 23.945,-10.422 50.894,-15.633 80.836,-15.633 26.586,0 50.058,3.949 70.418,11.859 20.351,7.903 35.503,18.742 45.445,32.512 9.937,13.769 14.914,28.801 14.914,45.09 0,16.531 -4.797,30.949 -14.371,43.289 -9.586,12.332 -25.391,22.691 -47.43,31.082 -14.133,5.508 -45.39,14.07 -93.765,25.687 -48.387,11.621 -82.278,22.571 -101.676,32.871 -25.149,13.172 -43.895,29.52 -56.227,49.04 -12.34,19.519 -18.5,41.378 -18.5,65.57 0,26.59 7.543,51.43 22.629,74.55 15.094,23.11 37.125,40.65 66.109,52.63 28.977,11.98 61.192,17.96 96.649,17.96 39.031,0 73.469,-6.28 103.289,-18.85 29.82,-12.58 52.75,-31.08 68.801,-55.51 16.043,-24.44 24.668,-52.1 25.867,-82.999 l -66.824,-5.031 c -3.594,33.29 -15.754,58.44 -36.465,75.45 -20.727,17 -51.324,25.51 -91.801,25.51 -42.156,0 -72.875,-7.73 -92.152,-23.18 -19.281,-15.45 -28.918,-34.07 -28.918,-55.86 0,-18.92 6.824,-34.49 20.476,-46.701 13.414,-12.219 48.442,-24.739 105.086,-37.547 56.645,-12.821 95.504,-24.02 116.582,-33.59 30.66,-14.141 53.293,-32.043 67.907,-53.711 14.605,-21.68 21.914,-46.648 21.914,-74.91 0,-28.031 -8.028,-54.43 -24.071,-79.219 -16.047,-24.793 -39.101,-44.07 -69.16,-57.84 -30.058,-13.769 -63.89,-20.672 -101.496,-20.672 -47.664,0 -87.605,6.961 -119.812,20.84 -32.219,13.891 -57.489,34.789 -75.813,62.699 -18.32,27.903 -27.965,59.461 -28.922,94.672"
         style="fill:#7b7979;fill-opacity:1;fill-rule:nonzero;stroke:none"
         id="path64" /><path
         d="m 892.883,869 c 0,-63.469 17.062,-113.469 51.195,-149.988 34.129,-36.532 76.942,-54.801 128.442,-54.801 52.45,0 95.62,18.449 129.52,55.34 33.89,36.879 50.84,89.211 50.84,157 0,42.871 -7.25,80.289 -21.74,112.269 -14.49,31.98 -35.7,56.77 -63.59,74.37 -27.91,17.61 -59.23,26.4 -93.95,26.4 -49.35,0 -91.799,-16.94 -127.366,-50.83 -35.57,-33.89 -53.351,-90.479 -53.351,-169.76 z m -71.86,1.082 c 0,87.418 23.473,155.858 70.422,205.328 46.938,49.45 107.539,74.18 181.795,74.18 48.62,0 92.45,-11.62 131.49,-34.84 39.04,-23.24 68.8,-55.63 89.28,-97.19 20.48,-41.56 30.72,-88.681 30.72,-141.369 0,-53.41 -10.78,-101.199 -32.34,-143.351 -21.55,-42.16 -52.09,-74.078 -91.61,-95.75 -39.52,-21.68 -82.16,-32.52 -127.9,-32.52 -49.58,0 -93.896,11.981 -132.935,35.93 -39.043,23.949 -68.621,56.641 -88.738,98.09 -20.117,41.43 -30.184,85.262 -30.184,131.492"
         style="fill:#7b7979;fill-opacity:1;fill-rule:nonzero;stroke:none"
         id="path66" /><path
         d="m 1418.14,613.563 0,526.697 355.32,0 0,-62.16 -285.62,0 0,-163.108 247.18,0 0,-62.152 -247.18,0 0,-239.277 -69.7,0"
         style="fill:#7b7979;fill-opacity:1;fill-rule:nonzero;stroke:none"
         id="path68" /><path
         d="m 1998.01,613.563 0,464.537 -173.53,0 0,62.16 417.48,0 0,-62.16 -174.25,0 0,-464.537 -69.7,0"
         style="fill:#7b7979;fill-opacity:1;fill-rule:nonzero;stroke:none"
         id="path70" /><path
         d="m 2405.42,613.563 -139.76,526.697 71.5,0 80.12,-345.268 c 8.62,-36.172 16.05,-72.09 22.28,-107.781 13.4,56.281 21.31,88.738 23.71,97.359 l 100.24,355.69 84.06,0 75.45,-266.58 c 18.92,-66.117 32.57,-128.27 40.96,-186.469 6.7,33.289 15.45,71.5 26.23,114.609 l 82.63,338.44 70.06,0 -144.43,-526.697 -67.19,0 -111.01,401.307 c -9.34,33.53 -14.85,54.13 -16.52,61.79 -5.52,-24.19 -10.67,-44.79 -15.45,-61.79 l -111.74,-401.307 -71.14,0"
         style="fill:#7b7979;fill-opacity:1;fill-rule:nonzero;stroke:none"
         id="path72" /><path
         d="m 3074.75,829.84 178.56,0 -54.97,145.871 c -16.77,44.299 -29.22,80.709 -37.36,109.219 -6.71,-33.77 -16.17,-67.31 -28.38,-100.598 L 3074.75,829.84 z m -151.97,-216.277 202.27,526.697 75.09,0 215.56,-526.697 -79.4,0 -61.43,159.519 -220.24,0 -57.84,-159.519 -74.01,0"
         style="fill:#7b7979;fill-opacity:1;fill-rule:nonzero;stroke:none"
         id="path74" /><path
         d="m 3542.17,907.809 149.81,0 c 31.85,0 56.77,3.293 74.73,9.871 17.97,6.59 31.62,17.133 40.96,31.621 9.34,14.488 14.01,30.238 14.01,47.25 0,24.899 -9.04,45.379 -27.12,61.429 -18.09,16.05 -46.65,24.08 -85.69,24.08 l -166.7,0 0,-174.251 z m -69.7,-294.246 0,526.697 233.53,0 c 46.93,0 82.63,-4.74 107.06,-14.2 24.43,-9.46 43.95,-26.16 58.56,-50.12 14.61,-23.95 21.92,-50.42 21.92,-79.389 0,-37.371 -12.1,-68.871 -36.29,-94.492 -24.19,-25.637 -61.56,-41.918 -112.09,-48.86 18.44,-8.867 32.45,-17.609 42.03,-26.23 20.35,-18.68 39.64,-42.028 57.84,-70.059 l 91.62,-143.347 -87.67,0 -69.69,109.578 c -20.36,31.609 -37.13,55.8 -50.3,72.57 -13.17,16.769 -24.97,28.5 -35.39,35.211 -10.42,6.699 -21.02,11.367 -31.79,14.019 -7.91,1.668 -20.84,2.508 -38.81,2.508 l -80.83,0 0,-233.886 -69.7,0"
         style="fill:#7b7979;fill-opacity:1;fill-rule:nonzero;stroke:none"
         id="path76" /><path
         d="m 4004.19,613.563 0,526.697 380.83,0 0,-62.16 -311.13,0 0,-161.319 291.37,0 0,-61.789 -291.37,0 0,-179.273 323.35,0 0,-62.156 -393.05,0"
         style="fill:#7b7979;fill-opacity:1;fill-rule:nonzero;stroke:none"
         id="path78" /><path
         d="m 4699.39,613.563 0,526.697 380.83,0 0,-62.16 -311.13,0 0,-161.319 291.37,0 0,-61.789 -291.37,0 0,-179.273 323.35,0 0,-62.156 -393.05,0"
         style="fill:#7b7979;fill-opacity:1;fill-rule:nonzero;stroke:none"
         id="path80" /><path
         d="m 5188,613.563 0,526.697 71.5,0 276.64,-413.53 0,413.53 66.81,0 0,-526.697 -71.48,0 -276.64,413.887 0,-413.887 -66.83,0"
         style="fill:#7b7979;fill-opacity:1;fill-rule:nonzero;stroke:none"
         id="path82" /><path
         d="m 5966.54,820.141 0,61.8 223.11,0.36 0,-195.449 c -34.25,-27.301 -69.58,-47.84 -105.98,-61.61 -36.42,-13.769 -73.78,-20.672 -112.09,-20.672 -51.74,0 -98.75,11.082 -141.02,33.239 -42.28,22.16 -74.19,54.191 -95.75,96.113 -21.55,41.898 -32.33,88.738 -32.33,140.469 0,51.261 10.71,99.101 32.15,143.529 21.43,44.43 52.28,77.43 92.51,98.98 40.25,21.56 86.59,32.33 139.05,32.33 38.07,0 72.51,-6.16 103.29,-18.49 30.77,-12.35 54.9,-29.52 72.39,-51.57 17.48,-22.03 30.77,-50.78 39.87,-86.221 l -62.87,-17.238 c -7.9,26.819 -17.72,47.899 -29.46,63.229 -11.73,15.32 -28.51,27.6 -50.29,36.83 -21.8,9.22 -45.99,13.82 -72.58,13.82 -31.86,0 -59.4,-4.84 -82.63,-14.55 -23.23,-9.69 -41.98,-22.45 -56.23,-38.26 -14.25,-15.81 -25.32,-33.17 -33.23,-52.089 -13.42,-32.582 -20.12,-67.91 -20.12,-105.98 0,-46.961 8.09,-86.231 24.25,-117.852 16.17,-31.617 39.71,-55.089 70.59,-70.418 30.9,-15.332 63.72,-22.992 98.45,-22.992 30.18,0 59.64,5.813 88.38,17.43 28.74,11.613 50.54,24 65.39,37.18 l 0,98.082 -154.85,0"
         style="fill:#7b7979;fill-opacity:1;fill-rule:nonzero;stroke:none"
         id="path84" /><path
         d="m 6304.26,613.563 69.6992,0 0,526.699 -69.6992,0 0,-526.699 z"
         style="fill:#7b7979;fill-opacity:1;fill-rule:nonzero;stroke:none"
         id="path86" /><path
         d="m 6496.12,613.563 0,526.697 71.49,0 276.64,-413.53 0,413.53 66.83,0 0,-526.697 -71.5,0 -276.64,413.887 0,-413.887 -66.82,0"
         style="fill:#7b7979;fill-opacity:1;fill-rule:nonzero;stroke:none"
         id="path88" /><path
         d="m 7029.63,613.563 0,526.697 380.83,0 0,-62.16 -311.13,0 0,-161.319 291.37,0 0,-61.789 -291.37,0 0,-179.273 323.35,0 0,-62.156 -393.05,0"
         style="fill:#7b7979;fill-opacity:1;fill-rule:nonzero;stroke:none"
         id="path90" /><path
         d="m 7520.41,613.563 0,526.697 380.83,0 0,-62.16 -311.14,0 0,-161.319 291.37,0 0,-61.789 -291.37,0 0,-179.273 323.35,0 0,-62.156 -393.04,0"
         style="fill:#7b7979;fill-opacity:1;fill-rule:nonzero;stroke:none"
         id="path92" /><path
         d="m 8080.51,907.809 149.83,0 c 31.84,0 56.75,3.293 74.72,9.871 17.96,6.59 31.61,17.133 40.96,31.621 9.34,14.488 14.01,30.238 14.01,47.25 0,24.899 -9.04,45.379 -27.12,61.429 -18.09,16.05 -46.66,24.08 -85.69,24.08 l -166.71,0 0,-174.251 z m -69.69,-294.246 0,526.697 233.52,0 c 46.94,0 82.64,-4.74 107.07,-14.2 24.42,-9.46 43.95,-26.16 58.56,-50.12 14.61,-23.95 21.92,-50.42 21.92,-79.389 0,-37.371 -12.1,-68.871 -36.29,-94.492 -24.2,-25.637 -61.56,-41.918 -112.1,-48.86 18.45,-8.867 32.46,-17.609 42.04,-26.23 20.35,-18.68 39.64,-42.028 57.84,-70.059 l 91.62,-143.347 -87.66,0 -69.71,109.578 c -20.35,31.609 -37.13,55.8 -50.29,72.57 -13.17,16.769 -24.97,28.5 -35.39,35.211 -10.42,6.699 -21.02,11.367 -31.8,14.019 -7.9,1.668 -20.84,2.508 -38.8,2.508 l -80.84,0 0,-233.886 -69.69,0"
         style="fill:#7b7979;fill-opacity:1;fill-rule:nonzero;stroke:none"
         id="path94" /><path
         d="m 8552.96,613.563 69.6992,0 0,526.699 -69.6992,0 0,-526.699 z"
         style="fill:#7b7979;fill-opacity:1;fill-rule:nonzero;stroke:none"
         id="path96" /><path
         d="m 8744.81,613.563 0,526.697 71.49,0 276.64,-413.53 0,413.53 66.83,0 0,-526.697 -71.49,0 -276.64,413.887 0,-413.887 -66.83,0"
         style="fill:#7b7979;fill-opacity:1;fill-rule:nonzero;stroke:none"
         id="path98" /><path
         d="m 9523.35,820.141 0,61.8 223.12,0.36 0,-195.449 c -34.26,-27.301 -69.58,-47.84 -105.99,-61.61 -36.41,-13.769 -73.78,-20.672 -112.09,-20.672 -51.73,0 -98.75,11.082 -141.01,33.239 -42.29,22.16 -74.19,54.191 -95.75,96.113 -21.56,41.898 -32.34,88.738 -32.34,140.469 0,51.261 10.71,99.101 32.16,143.529 21.43,44.43 52.28,77.43 92.51,98.98 40.24,21.56 86.58,32.33 139.04,32.33 38.08,0 72.51,-6.16 103.29,-18.49 30.78,-12.35 54.91,-29.52 72.4,-51.57 17.48,-22.03 30.77,-50.78 39.87,-86.221 l -62.87,-17.238 c -7.9,26.819 -17.73,47.899 -29.46,63.229 -11.73,15.32 -28.51,27.6 -50.3,36.83 -21.79,9.22 -45.98,13.82 -72.58,13.82 -31.85,0 -59.39,-4.84 -82.62,-14.55 -23.23,-9.69 -41.98,-22.45 -56.23,-38.26 -14.25,-15.81 -25.33,-33.17 -33.24,-52.089 -13.41,-32.582 -20.11,-67.91 -20.11,-105.98 0,-46.961 8.08,-86.231 24.25,-117.852 16.17,-31.617 39.7,-55.089 70.59,-70.418 30.9,-15.332 63.71,-22.992 98.45,-22.992 30.17,0 59.64,5.813 88.38,17.43 28.74,11.613 50.53,24 65.39,37.18 l 0,98.082 -154.86,0"
         style="fill:#7b7979;fill-opacity:1;fill-rule:nonzero;stroke:none"
         id="path100" /></g></g></svg>